<svg height="510" width="720" xmlns="http://www.w3.org/2000/svg">
<rect height="510" fill="#555" width="720"></rect>
<text fill="#7f7" font-family="Courier New" font-size="12" xml:space="preserve">
<tspan x="10" y="26">4 megabytes installed</tspan>
<tspan x="10" y="42"></tspan>
<tspan x="10" y="58">node_modules</tspan>
<tspan x="10" y="74">└─┬ jade-lint@2.1.0 </tspan>
<tspan x="10" y="90">  ├─┬ commander@2.9.0 </tspan>
<tspan x="10" y="106">  │ └── graceful-readlink@1.0.1 </tspan>
<tspan x="10" y="122">  ├── css-selector-parser@1.1.0 </tspan>
<tspan x="10" y="138">  ├─┬ glob@6.0.1 </tspan>
<tspan x="10" y="154">  │ ├─┬ inflight@1.0.4 </tspan>
<tspan x="10" y="170">  │ │ └── wrappy@1.0.1 </tspan>
<tspan x="10" y="186">  │ ├── inherits@2.0.1 </tspan>
<tspan x="10" y="202">  │ ├─┬ once@1.3.2 </tspan>
<tspan x="10" y="218">  │ │ └── wrappy@1.0.1 </tspan>
<tspan x="10" y="234">  │ └── path-is-absolute@1.0.0 </tspan>
<tspan x="10" y="250">  ├─┬ jade-attrs@2.0.0 </tspan>
<tspan x="10" y="266">  │ ├─┬ constantinople@3.0.2 </tspan>
<tspan x="10" y="282">  │ │ └── acorn@2.6.4 </tspan>
<tspan x="10" y="298">  │ ├── jade-runtime@1.1.0 </tspan>
<tspan x="10" y="314">  │ └── js-stringify@1.0.2 </tspan>
<tspan x="10" y="330">  ├── jade-error@1.2.0 </tspan>
<tspan x="10" y="346">  ├─┬ jade-lexer@0.0.9 </tspan>
<tspan x="10" y="362">  │ ├── character-parser@2.1.1 </tspan>
<tspan x="10" y="378">  │ └─┬ is-expression@1.0.1 </tspan>
<tspan x="10" y="394">  │   ├── acorn@2.6.4 </tspan>
<tspan x="10" y="410">  │   └── object-assign@4.0.1 </tspan>
<tspan x="10" y="426">  ├─┬ minimatch@3.0.0 </tspan>
<tspan x="10" y="442">  │ └─┬ brace-expansion@1.1.1 </tspan>
<tspan x="10" y="458">  │   ├── balanced-match@0.2.1 </tspan>
<tspan x="10" y="474">  │   └── concat-map@0.0.1 </tspan>
<tspan x="10" y="490">  └── void-elements@2.0.1</tspan>
</text>
</svg>
